<svg width="1600" height="1000" viewBox="0 0 1600 1000" fill="none" xmlns="http://www.w3.org/2000/svg">
  <defs>
    <linearGradient id="bg" x1="200" y1="80" x2="1440" y2="920" gradientUnits="userSpaceOnUse">
      <stop stop-color="#F8FAFC"/>
      <stop offset="1" stop-color="#EEF2F7"/>
    </linearGradient>
    <linearGradient id="accent" x1="0" y1="0" x2="1" y2="1">
      <stop stop-color="#4F8BFF"/>
      <stop offset="1" stop-color="#2F6DF6"/>
    </linearGradient>
  </defs>
  <rect x="36" y="36" width="1528" height="928" rx="38" fill="url(#bg)"/>
  <rect x="72" y="72" width="254" height="856" rx="28" fill="#FFFFFF" stroke="#E4E7EC"/>
  <rect x="112" y="118" width="48" height="48" rx="14" fill="url(#accent)"/>
  <rect x="182" y="122" width="88" height="16" rx="8" fill="#101828"/>
  <rect x="182" y="146" width="64" height="10" rx="5" fill="#667085"/>
  <rect x="108" y="224" width="182" height="48" rx="16" fill="#E8F0FE"/>
  <rect x="132" y="241" width="102" height="14" rx="7" fill="#1D54CF"/>
  <rect x="108" y="290" width="182" height="48" rx="16" fill="#F8FAFC"/>
  <rect x="132" y="307" width="84" height="14" rx="7" fill="#667085"/>
  <rect x="108" y="356" width="182" height="48" rx="16" fill="#F8FAFC"/>
  <rect x="132" y="373" width="96" height="14" rx="7" fill="#667085"/>
  <rect x="108" y="422" width="182" height="48" rx="16" fill="#F8FAFC"/>
  <rect x="132" y="439" width="74" height="14" rx="7" fill="#667085"/>

  <rect x="368" y="72" width="1160" height="74" rx="24" fill="#FFFFFF" stroke="#E4E7EC"/>
  <rect x="408" y="100" width="170" height="16" rx="8" fill="#101828"/>
  <rect x="1310" y="92" width="176" height="36" rx="18" fill="#F8FAFC" stroke="#E4E7EC"/>
  <rect x="1338" y="103" width="118" height="14" rx="7" fill="#667085"/>

  <rect x="368" y="184" width="256" height="154" rx="28" fill="#FFFFFF" stroke="#E4E7EC"/>
  <rect x="398" y="216" width="112" height="14" rx="7" fill="#667085"/>
  <rect x="398" y="248" width="108" height="38" rx="14" fill="#101828"/>
  <rect x="520" y="254" width="74" height="26" rx="13" fill="#E8F0FE"/>
  <rect x="398" y="304" width="156" height="10" rx="5" fill="#98A2B3"/>

  <rect x="644" y="184" width="256" height="154" rx="28" fill="#FFFFFF" stroke="#E4E7EC"/>
  <rect x="674" y="216" width="110" height="14" rx="7" fill="#667085"/>
  <rect x="674" y="248" width="84" height="38" rx="14" fill="#F2F4F7"/>
  <path d="M688 304C718 280 748 278 774 296C798 312 824 312 850 280L870 294C842 336 808 352 774 340C742 330 718 334 690 356L688 304Z" fill="#5B8DEF"/>

  <rect x="920" y="184" width="292" height="154" rx="28" fill="#FFFFFF" stroke="#E4E7EC"/>
  <rect x="950" y="216" width="112" height="14" rx="7" fill="#667085"/>
  <circle cx="1032" cy="272" r="42" fill="#F8FAFC" stroke="#D0D5DD"/>
  <path d="M1032 230A42 42 0 0 1 1070 295" stroke="#2F6DF6" stroke-width="16" stroke-linecap="round"/>
  <path d="M1032 230A42 42 0 0 0 999 299" stroke="#8AB0FF" stroke-width="16" stroke-linecap="round"/>
  <rect x="1100" y="252" width="74" height="12" rx="6" fill="#101828"/>
  <rect x="1100" y="280" width="54" height="10" rx="5" fill="#667085"/>

  <rect x="1230" y="184" width="298" height="338" rx="28" fill="#FFFFFF" stroke="#E4E7EC"/>
  <rect x="1258" y="216" width="132" height="14" rx="7" fill="#667085"/>
  <rect x="1258" y="260" width="238" height="56" rx="18" fill="#F8FAFC"/>
  <rect x="1282" y="280" width="110" height="14" rx="7" fill="#101828"/>
  <rect x="1258" y="336" width="238" height="56" rx="18" fill="#F8FAFC"/>
  <rect x="1282" y="356" width="144" height="14" rx="7" fill="#101828"/>
  <rect x="1258" y="412" width="238" height="56" rx="18" fill="#F8FAFC"/>
  <rect x="1282" y="432" width="128" height="14" rx="7" fill="#101828"/>

  <rect x="368" y="372" width="820" height="300" rx="30" fill="#FFFFFF" stroke="#E4E7EC"/>
  <rect x="404" y="408" width="180" height="16" rx="8" fill="#101828"/>
  <rect x="404" y="454" width="748" height="172" rx="24" fill="#F8FAFC"/>
  <path d="M446 578L560 494L654 532L770 448L878 512L982 428L1112 478" stroke="#2F6DF6" stroke-width="12" stroke-linecap="round" stroke-linejoin="round"/>
  <circle cx="560" cy="494" r="10" fill="#2F6DF6"/>
  <circle cx="770" cy="448" r="10" fill="#2F6DF6"/>
  <circle cx="982" cy="428" r="10" fill="#2F6DF6"/>

  <rect x="368" y="706" width="560" height="186" rx="30" fill="#FFFFFF" stroke="#E4E7EC"/>
  <rect x="404" y="742" width="170" height="16" rx="8" fill="#101828"/>
  <rect x="404" y="788" width="494" height="26" rx="13" fill="#F8FAFC"/>
  <rect x="430" y="795" width="134" height="12" rx="6" fill="#101828"/>
  <rect x="404" y="830" width="494" height="26" rx="13" fill="#F8FAFC"/>
  <rect x="430" y="837" width="186" height="12" rx="6" fill="#101828"/>

  <rect x="960" y="560" width="568" height="332" rx="30" fill="#FFFFFF" stroke="#E4E7EC"/>
  <rect x="996" y="596" width="178" height="16" rx="8" fill="#101828"/>
  <rect x="996" y="644" width="500" height="184" rx="24" fill="#F8FAFC"/>
  <rect x="1028" y="680" width="94" height="94" rx="24" fill="#E8F0FE"/>
  <rect x="1148" y="686" width="310" height="18" rx="9" fill="#101828"/>
  <rect x="1148" y="722" width="222" height="12" rx="6" fill="#667085"/>
  <rect x="1148" y="756" width="184" height="30" rx="15" fill="url(#accent)"/>
</svg>
