<svg width="1600" height="1000" viewBox="0 0 1600 1000" fill="none" xmlns="http://www.w3.org/2000/svg">
  <defs>
    <linearGradient id="bg" x1="180" y1="80" x2="1420" y2="920" gradientUnits="userSpaceOnUse">
      <stop stop-color="#F8FAFC"/>
      <stop offset="1" stop-color="#EEF2F7"/>
    </linearGradient>
    <linearGradient id="accent" x1="0" y1="0" x2="1" y2="1">
      <stop stop-color="#4F8BFF"/>
      <stop offset="1" stop-color="#2F6DF6"/>
    </linearGradient>
  </defs>
  <rect x="36" y="36" width="1528" height="928" rx="38" fill="url(#bg)"/>
  <rect x="72" y="72" width="126" height="856" rx="28" fill="#FFFFFF" stroke="#E4E7EC"/>
  <rect x="106" y="116" width="56" height="56" rx="18" fill="url(#accent)"/>
  <rect x="104" y="234" width="62" height="62" rx="20" fill="#E8F0FE"/>
  <rect x="104" y="320" width="62" height="62" rx="20" fill="#F2F4F7"/>
  <rect x="104" y="406" width="62" height="62" rx="20" fill="#F2F4F7"/>
  <rect x="104" y="492" width="62" height="62" rx="20" fill="#F2F4F7"/>

  <rect x="228" y="72" width="932" height="856" rx="30" fill="#FFFFFF" stroke="#E4E7EC"/>
  <rect x="228" y="72" width="932" height="94" rx="30" fill="#F8FAFC"/>
  <rect x="268" y="108" width="218" height="18" rx="9" fill="#101828"/>
  <rect x="510" y="110" width="88" height="14" rx="7" fill="#667085"/>
  <rect x="944" y="96" width="176" height="44" rx="22" fill="#E8F0FE"/>
  <rect x="974" y="111" width="116" height="14" rx="7" fill="#1D54CF"/>

  <rect x="264" y="206" width="860" height="86" rx="26" fill="#FFFFFF" stroke="#E4E7EC"/>
  <rect x="296" y="236" width="134" height="16" rx="8" fill="#101828"/>
  <rect x="458" y="230" width="108" height="28" rx="14" fill="#F2F4F7"/>
  <rect x="588" y="230" width="108" height="28" rx="14" fill="#F2F4F7"/>
  <rect x="718" y="230" width="108" height="28" rx="14" fill="#F2F4F7"/>
  <rect x="850" y="230" width="118" height="28" rx="14" fill="url(#accent)"/>

  <rect x="264" y="324" width="590" height="560" rx="30" fill="#FFFFFF" stroke="#E4E7EC"/>
  <rect x="300" y="366" width="220" height="18" rx="9" fill="#101828"/>
  <rect x="300" y="404" width="478" height="12" rx="6" fill="#667085"/>
  <rect x="300" y="428" width="446" height="12" rx="6" fill="#667085"/>
  <rect x="300" y="452" width="396" height="12" rx="6" fill="#667085"/>
  <rect x="300" y="498" width="518" height="104" rx="24" fill="#F8FAFC"/>
  <rect x="326" y="526" width="188" height="14" rx="7" fill="#101828"/>
  <rect x="326" y="558" width="436" height="10" rx="5" fill="#667085"/>
  <rect x="326" y="580" width="382" height="10" rx="5" fill="#667085"/>
  <rect x="300" y="634" width="518" height="104" rx="24" fill="#F8FAFC"/>
  <rect x="326" y="662" width="152" height="14" rx="7" fill="#101828"/>
  <rect x="326" y="694" width="424" height="10" rx="5" fill="#667085"/>
  <rect x="326" y="716" width="330" height="10" rx="5" fill="#667085"/>
  <rect x="300" y="770" width="518" height="80" rx="24" fill="#F8FAFC"/>
  <rect x="326" y="798" width="184" height="14" rx="7" fill="#101828"/>
  <rect x="612" y="790" width="176" height="30" rx="15" fill="#E8F0FE"/>

  <rect x="884" y="324" width="240" height="560" rx="30" fill="#FFFFFF" stroke="#E4E7EC"/>
  <rect x="914" y="360" width="118" height="14" rx="7" fill="#667085"/>
  <rect x="914" y="392" width="180" height="42" rx="21" fill="url(#accent)"/>
  <rect x="944" y="406" width="120" height="14" rx="7" fill="#FFFFFF"/>
  <rect x="914" y="468" width="180" height="92" rx="24" fill="#F8FAFC"/>
  <rect x="938" y="494" width="132" height="12" rx="6" fill="#101828"/>
  <rect x="938" y="522" width="96" height="10" rx="5" fill="#667085"/>
  <rect x="914" y="584" width="180" height="126" rx="24" fill="#F8FAFC"/>
  <rect x="938" y="612" width="120" height="12" rx="6" fill="#101828"/>
  <rect x="938" y="642" width="132" height="26" rx="13" fill="#EEF4FF"/>
  <rect x="938" y="678" width="110" height="26" rx="13" fill="#EEF4FF"/>
  <rect x="914" y="734" width="180" height="116" rx="24" fill="#F8FAFC"/>
  <path d="M940 806C964 760 998 748 1032 772C1062 792 1080 790 1092 774" stroke="#5B8DEF" stroke-width="14" stroke-linecap="round"/>
  <circle cx="992" cy="774" r="10" fill="#2F6DF6"/>
</svg>
